<svg width="33" height="20" viewBox="0 0 33 20" fill="none" xmlns="http://www.w3.org/2000/svg">
<path d="M8.29565 6.10576C8.29565 6.10576 9.14214 -0.30172 16.5912 0.0110918C19.2103 0.12108 22.2868 1.37554 24.3788 4.07421C25.9537 6.10576 29.2884 7.29084 32.6743 3.90491C31.1507 8.8145 27.939 9.94904 24.2095 9.99958C18.2841 10.0799 16.9298 4.4128 13.2052 3.90491C10.1316 3.48577 8.29565 6.10576 8.29565 6.10576Z" fill="#00BDFD"/>
<path d="M0 16.1053C0 16.1053 0.846482 9.69786 8.29552 10.0107C10.9147 10.1207 13.9911 11.3751 16.0832 14.0738C17.6581 16.1053 20.9928 17.2904 24.3787 13.9045C22.855 18.8141 19.6434 19.9486 15.9139 19.9992C9.98849 20.0794 8.63412 14.4124 4.9096 13.9045C1.8359 13.4853 0 16.1053 0 16.1053Z" fill="#00BDFD"/>
</svg>
