<svg width="55" height="10" viewBox="0 0 55 10" fill="none" xmlns="http://www.w3.org/2000/svg">
<path d="M49.6606 10C49.4394 10 49.2307 9.9824 49.0346 9.94721C48.8386 9.91453 48.6701 9.87054 48.5294 9.81523L48.9366 8.47662C49.1176 8.53696 49.281 8.57215 49.4268 8.58221C49.5751 8.59226 49.7021 8.56838 49.8076 8.51056C49.9157 8.45526 49.9987 8.35596 50.0565 8.21267L50.1282 8.03922L48.0693 2.03621H49.9999L51.0671 6.16894H51.1274L52.2096 2.03621H54.1515L51.9683 8.38236C51.8627 8.6991 51.7131 8.97813 51.5196 9.21946C51.3285 9.4633 51.0809 9.65435 50.7767 9.79261C50.4751 9.93087 50.103 10 49.6606 10Z" fill="url(#paint0_linear_9_237)"/>
<path d="M43.8875 7.82801V2.03617H45.6785V3.09197H45.7389C45.8445 2.70987 46.0167 2.42581 46.2555 2.23979C46.4943 2.05125 46.7721 1.95698 47.0888 1.95698C47.1743 1.95698 47.2623 1.96327 47.3528 1.97584C47.4432 1.98589 47.5275 2.00223 47.6054 2.02485V3.62742C47.5174 3.59725 47.4018 3.57337 47.2585 3.55577C47.1177 3.53817 46.992 3.52938 46.8814 3.52938C46.6627 3.52938 46.4654 3.5784 46.2894 3.67643C46.116 3.77196 45.9789 3.90645 45.8784 4.0799C45.7804 4.25084 45.7313 4.45195 45.7313 4.68322V7.82801H43.8875Z" fill="url(#paint1_linear_9_237)"/>
<path d="M40.1969 7.93739C39.5911 7.93739 39.0682 7.81798 38.6283 7.57917C38.1909 7.33784 37.8541 6.99471 37.6178 6.54976C37.384 6.1023 37.2671 5.57063 37.2671 4.95474C37.2671 4.35645 37.3852 3.83358 37.6215 3.38612C37.8578 2.93614 38.1909 2.58672 38.6208 2.33785C39.0506 2.08647 39.5572 1.96078 40.1404 1.96078C40.5527 1.96078 40.9297 2.02488 41.2716 2.15309C41.6135 2.28129 41.9089 2.47109 42.1577 2.72247C42.4066 2.97385 42.6002 3.28431 42.7384 3.65384C42.8767 4.02086 42.9458 4.44192 42.9458 4.91703V5.37706H37.9119V4.30618H41.2301C41.2276 4.1101 41.1811 3.93539 41.0906 3.78204C41.0001 3.6287 40.8757 3.50929 40.7173 3.42382C40.5614 3.33584 40.3817 3.29185 40.1781 3.29185C39.972 3.29185 39.7872 3.33836 39.6238 3.43137C39.4604 3.52186 39.3309 3.6463 39.2354 3.80467C39.1399 3.96053 39.0896 4.13775 39.0846 4.33634V5.42608C39.0846 5.66238 39.1311 5.86977 39.2241 6.04825C39.3171 6.22422 39.4491 6.36123 39.62 6.45926C39.791 6.5573 39.9946 6.60632 40.2309 6.60632C40.3943 6.60632 40.5426 6.5837 40.6758 6.53845C40.8091 6.4932 40.9234 6.42658 41.019 6.3386C41.1145 6.25062 41.1861 6.14252 41.2339 6.01432L42.927 6.06334C42.8566 6.44292 42.702 6.77349 42.4632 7.05504C42.2269 7.33407 41.9164 7.55152 41.5318 7.70738C41.1472 7.86072 40.7022 7.93739 40.1969 7.93739Z" fill="url(#paint2_linear_9_237)"/>
<path d="M34.4756 5.32806V2.03621H36.3157V7.82806H34.5585V6.74963H34.4982C34.37 7.10408 34.1513 7.38563 33.8421 7.59427C33.5354 7.80041 33.1646 7.90347 32.7297 7.90347C32.335 7.90347 31.9881 7.81298 31.689 7.63198C31.3898 7.45099 31.1573 7.19835 30.9914 6.87406C30.8255 6.54727 30.7413 6.16517 30.7388 5.72776V2.03621H32.5827V5.36577C32.5852 5.68 32.6681 5.92761 32.8315 6.10861C32.9949 6.2896 33.2174 6.3801 33.4989 6.3801C33.6825 6.3801 33.8471 6.33988 33.9929 6.25944C34.1412 6.17648 34.2581 6.05707 34.3436 5.90122C34.4316 5.74284 34.4756 5.55179 34.4756 5.32806Z" fill="url(#paint3_linear_9_237)"/>
<path d="M25.3023 5.05278H26.8106L27.4516 5.87103L28.2925 6.83634L29.5858 8.43136H27.8965L26.9916 7.34916L26.4561 6.57993L25.3023 5.05278ZM29.6386 3.96681C29.6386 4.81648 29.4752 5.53669 29.1484 6.12744C28.8216 6.71819 28.3792 7.1669 27.8211 7.47359C27.2656 7.78028 26.6421 7.93362 25.9508 7.93362C25.257 7.93362 24.6324 7.77902 24.0768 7.46982C23.5212 7.16062 23.0801 6.7119 22.7533 6.12367C22.429 5.53292 22.2668 4.81397 22.2668 3.96681C22.2668 3.11714 22.429 2.39693 22.7533 1.80618C23.0801 1.21543 23.5212 0.766716 24.0768 0.460029C24.6324 0.153343 25.257 0 25.9508 0C26.6421 0 27.2656 0.153343 27.8211 0.460029C28.3792 0.766716 28.8216 1.21543 29.1484 1.80618C29.4752 2.39693 29.6386 3.11714 29.6386 3.96681ZM27.7306 3.96681C27.7306 3.46405 27.659 3.03921 27.5157 2.6923C27.3749 2.3454 27.1713 2.0827 26.9048 1.90422C26.6409 1.72574 26.3229 1.6365 25.9508 1.6365C25.5813 1.6365 25.2633 1.72574 24.9969 1.90422C24.7304 2.0827 24.5255 2.3454 24.3822 2.6923C24.2415 3.03921 24.1711 3.46405 24.1711 3.96681C24.1711 4.46957 24.2415 4.89441 24.3822 5.24132C24.5255 5.58822 24.7304 5.85092 24.9969 6.0294C25.2633 6.20788 25.5813 6.29712 25.9508 6.29712C26.3229 6.29712 26.6409 6.20788 26.9048 6.0294C27.1713 5.85092 27.3749 5.58822 27.5157 5.24132C27.659 4.89441 27.7306 4.46957 27.7306 3.96681Z" fill="url(#paint4_linear_9_237)"/>
<path d="M18.3576 7.93737C18.0861 7.93737 17.8536 7.84185 17.6601 7.6508C17.469 7.45975 17.3747 7.22848 17.3772 6.95698C17.3747 6.69052 17.469 6.46302 17.6601 6.27448C17.8536 6.08343 18.0861 5.98791 18.3576 5.98791C18.614 5.98791 18.8403 6.08343 19.0364 6.27448C19.235 6.46302 19.3355 6.69052 19.338 6.95698C19.3355 7.13798 19.2877 7.30263 19.1947 7.45095C19.1042 7.59926 18.9848 7.71741 18.8365 7.8054C18.6907 7.89338 18.5311 7.93737 18.3576 7.93737Z" fill="url(#paint5_linear_9_237)"/>
<path d="M14.4855 2.42081C14.4604 2.14429 14.3485 1.92936 14.1499 1.77601C13.9539 1.62016 13.6736 1.54223 13.3091 1.54223C13.0677 1.54223 12.8666 1.57365 12.7058 1.6365C12.5449 1.69934 12.4242 1.78607 12.3438 1.89668C12.2633 2.00477 12.2218 2.12921 12.2193 2.26998C12.2143 2.38562 12.2369 2.48743 12.2872 2.57541C12.34 2.66339 12.4154 2.74132 12.5134 2.8092C12.614 2.87455 12.7347 2.93237 12.8754 2.98265C13.0162 3.03293 13.1746 3.07692 13.3505 3.11462L14.0142 3.26545C14.3963 3.34841 14.7331 3.45902 15.0248 3.59728C15.3189 3.73554 15.5652 3.90019 15.7638 4.09124C15.9649 4.28229 16.117 4.50225 16.2201 4.75112C16.3231 4.99999 16.3759 5.27902 16.3784 5.58822C16.3759 6.07591 16.2528 6.49446 16.0089 6.84388C15.7651 7.1933 15.4144 7.46102 14.9569 7.64704C14.5019 7.83307 13.9526 7.92608 13.3091 7.92608C12.663 7.92608 12.0999 7.8293 11.6198 7.63573C11.1396 7.44217 10.7663 7.14805 10.4999 6.75338C10.2334 6.35871 10.0964 5.85972 10.0889 5.2564H11.8762C11.8913 5.50527 11.9579 5.71266 12.076 5.87857C12.1942 6.04448 12.3563 6.17017 12.5625 6.25564C12.7711 6.34111 13.0124 6.38385 13.2864 6.38385C13.5378 6.38385 13.7515 6.34991 13.9275 6.28204C14.106 6.21417 14.243 6.1199 14.3385 5.99923C14.434 5.87857 14.483 5.74031 14.4855 5.58445C14.483 5.43865 14.4378 5.31422 14.3498 5.21115C14.2618 5.10557 14.1261 5.01507 13.9426 4.93966C13.7616 4.86173 13.5303 4.79009 13.2487 4.72473L12.4418 4.53619C11.7731 4.38285 11.2465 4.13524 10.8619 3.79336C10.4773 3.44896 10.2862 2.98391 10.2887 2.39819C10.2862 1.92056 10.4144 1.50201 10.6733 1.14253C10.9323 0.783055 11.2905 0.502764 11.748 0.301659C12.2055 0.100553 12.7271 0 13.3128 0C13.9111 0 14.4302 0.10181 14.8702 0.305429C15.3126 0.506535 15.6557 0.78934 15.8996 1.15384C16.1434 1.51835 16.2678 1.94067 16.2729 2.42081H14.4855Z" fill="url(#paint6_linear_9_237)"/>
<path d="M8.11276 7.93737C7.84127 7.93737 7.60874 7.84185 7.41518 7.6508C7.22413 7.45975 7.12986 7.22848 7.13237 6.95698C7.12986 6.69052 7.22413 6.46302 7.41518 6.27448C7.60874 6.08343 7.84127 5.98791 8.11276 5.98791C8.36917 5.98791 8.59542 6.08343 8.79149 6.27448C8.99009 6.46302 9.09064 6.69052 9.09315 6.95698C9.09064 7.13798 9.04288 7.30263 8.94986 7.45095C8.85937 7.59926 8.73996 7.71741 8.59165 7.8054C8.44584 7.89338 8.28622 7.93737 8.11276 7.93737Z" fill="url(#paint7_linear_9_237)"/>
<path d="M0 1.62142V0.105591H6.52713V1.62142H4.18551V7.82805H2.34539V1.62142H0Z" fill="url(#paint8_linear_9_237)"/>
<defs>
<linearGradient id="paint0_linear_9_237" x1="-0.459721" y1="3.84615" x2="54.4019" y2="3.84615" gradientUnits="userSpaceOnUse">
<stop stop-color="#F07833"/>
<stop offset="0.5" stop-color="#EE7F16"/>
<stop offset="1" stop-color="#F1A93C"/>
</linearGradient>
<linearGradient id="paint1_linear_9_237" x1="-0.459674" y1="3.84612" x2="54.4019" y2="3.84612" gradientUnits="userSpaceOnUse">
<stop stop-color="#F07833"/>
<stop offset="0.5" stop-color="#EE7F16"/>
<stop offset="1" stop-color="#F1A93C"/>
</linearGradient>
<linearGradient id="paint2_linear_9_237" x1="-0.459754" y1="3.84614" x2="54.4018" y2="3.84614" gradientUnits="userSpaceOnUse">
<stop stop-color="#F07833"/>
<stop offset="0.5" stop-color="#EE7F16"/>
<stop offset="1" stop-color="#F1A93C"/>
</linearGradient>
<linearGradient id="paint3_linear_9_237" x1="-0.459823" y1="3.84615" x2="54.4018" y2="3.84615" gradientUnits="userSpaceOnUse">
<stop stop-color="#F07833"/>
<stop offset="0.5" stop-color="#EE7F16"/>
<stop offset="1" stop-color="#F1A93C"/>
</linearGradient>
<linearGradient id="paint4_linear_9_237" x1="-0.459864" y1="3.84614" x2="54.4017" y2="3.84614" gradientUnits="userSpaceOnUse">
<stop stop-color="#F07833"/>
<stop offset="0.5" stop-color="#EE7F16"/>
<stop offset="1" stop-color="#F1A93C"/>
</linearGradient>
<linearGradient id="paint5_linear_9_237" x1="-0.459862" y1="3.84614" x2="54.4017" y2="3.84614" gradientUnits="userSpaceOnUse">
<stop stop-color="#F07833"/>
<stop offset="0.5" stop-color="#EE7F16"/>
<stop offset="1" stop-color="#F1A93C"/>
</linearGradient>
<linearGradient id="paint6_linear_9_237" x1="-0.459509" y1="3.84614" x2="54.4021" y2="3.84614" gradientUnits="userSpaceOnUse">
<stop stop-color="#F07833"/>
<stop offset="0.5" stop-color="#EE7F16"/>
<stop offset="1" stop-color="#F1A93C"/>
</linearGradient>
<linearGradient id="paint7_linear_9_237" x1="-0.459664" y1="3.84614" x2="54.4019" y2="3.84614" gradientUnits="userSpaceOnUse">
<stop stop-color="#F07833"/>
<stop offset="0.5" stop-color="#EE7F16"/>
<stop offset="1" stop-color="#F1A93C"/>
</linearGradient>
<linearGradient id="paint8_linear_9_237" x1="-0.459715" y1="3.84615" x2="54.4019" y2="3.84615" gradientUnits="userSpaceOnUse">
<stop stop-color="#F07833"/>
<stop offset="0.5" stop-color="#EE7F16"/>
<stop offset="1" stop-color="#F1A93C"/>
</linearGradient>
</defs>
</svg>
