<svg width="24" height="24" viewBox="0 0 24 24" fill="none" xmlns="http://www.w3.org/2000/svg">
<path d="M0 3C0 1.34315 1.34315 0 3 0H21C22.6569 0 24 1.34315 24 3V21C24 22.6569 22.6569 24 21 24H3C1.34315 24 0 22.6569 0 21V3Z" fill="#2D5EA3"/>
<path d="M20.8713 17.7678C20.8521 17.5488 20.7667 17.3786 20.6151 17.2572C20.4655 17.1337 20.2516 17.072 19.9734 17.072C19.7893 17.072 19.6358 17.0969 19.513 17.1467C19.3902 17.1965 19.2981 17.2651 19.2367 17.3527C19.1753 17.4383 19.1437 17.5369 19.1418 17.6484C19.1379 17.7399 19.1552 17.8206 19.1936 17.8902C19.2339 17.9599 19.2914 18.0216 19.3662 18.0754C19.443 18.1271 19.5351 18.1729 19.6425 18.2127C19.7499 18.2526 19.8708 18.2874 20.0051 18.3173L20.5116 18.4367C20.8032 18.5024 21.0602 18.59 21.2828 18.6995C21.5072 18.809 21.6952 18.9394 21.8468 19.0907C22.0003 19.242 22.1163 19.4162 22.195 19.6133C22.2737 19.8103 22.314 20.0313 22.3159 20.2762C22.314 20.6624 22.2199 20.9939 22.0339 21.2706C21.8478 21.5473 21.5801 21.7593 21.231 21.9066C20.8837 22.054 20.4646 22.1276 19.9734 22.1276C19.4804 22.1276 19.0506 22.051 18.6842 21.8977C18.3178 21.7444 18.0329 21.5115 17.8295 21.1989C17.6262 20.8864 17.5216 20.4912 17.5159 20.0134H18.8799C18.8914 20.2105 18.9422 20.3747 19.0324 20.5061C19.1226 20.6375 19.2463 20.7371 19.4036 20.8047C19.5629 20.8724 19.747 20.9063 19.9562 20.9063C20.148 20.9063 20.3111 20.8794 20.4454 20.8256C20.5816 20.7719 20.6861 20.6972 20.759 20.6017C20.8319 20.5061 20.8693 20.3966 20.8713 20.2732C20.8693 20.1577 20.8348 20.0592 20.7677 19.9776C20.7005 19.894 20.5969 19.8223 20.4569 19.7626C20.3187 19.7009 20.1422 19.6441 19.9274 19.5924L19.3116 19.443C18.8012 19.3216 18.3993 19.1255 18.1058 18.8548C17.8123 18.582 17.6665 18.2137 17.6684 17.7499C17.6665 17.3716 17.7643 17.0402 17.9619 16.7555C18.1595 16.4708 18.4329 16.2488 18.7821 16.0896C19.1312 15.9303 19.5293 15.8507 19.9763 15.8507C20.4329 15.8507 20.8291 15.9313 21.1648 16.0926C21.5024 16.2518 21.7643 16.4758 21.9504 16.7645C22.1365 17.0531 22.2315 17.3876 22.2353 17.7678H20.8713Z" fill="white"/>
<path d="M11.9773 17.0828V15.8507H17.1465V17.0828H15.2921V22.1276H13.8348V17.0828H11.9773Z" fill="white"/>
</svg>
