<svg width="23" height="24" viewBox="0 0 23 24" fill="none" xmlns="http://www.w3.org/2000/svg">
<circle cx="11.8808" cy="11.8809" r="1.2695" fill="#20C5F3" stroke="#20C5F3"/>
<path d="M21.7395 12C21.7395 11.7967 21.6341 11.484 21.1831 11.0811C20.7328 10.679 20.0239 10.2706 19.0616 9.90707C17.1439 9.18263 14.4267 8.71375 11.3753 8.71375C8.324 8.71375 5.60674 9.18263 3.68908 9.90707C2.72674 10.2706 2.01784 10.679 1.56756 11.0811C1.11657 11.484 1.01114 11.7967 1.01114 12C1.01114 12.2033 1.11657 12.516 1.56756 12.9188C2.01784 13.3209 2.72674 13.7293 3.68908 14.0928C5.60674 14.8173 8.324 15.2862 11.3753 15.2862V16.2973C5.09291 16.2973 0 14.3733 0 12C0 9.6266 5.09291 7.70261 11.3753 7.70261C17.6578 7.70261 22.7507 9.6266 22.7507 12C22.7507 14.3733 17.6578 16.2973 11.3753 16.2973V15.2862C14.4267 15.2862 17.1439 14.8173 19.0616 14.0928C20.0239 13.7293 20.7328 13.3209 21.1831 12.9188C21.6341 12.516 21.7395 12.2033 21.7395 12Z" fill="#20C5F3"/>
<path d="M6.69891 20.9757C6.87497 21.0773 7.19849 21.1424 7.77284 20.9532C8.34623 20.7643 9.05435 20.3546 9.85037 19.7029C11.4366 18.4044 13.2013 16.2856 14.7269 13.6431C16.2526 11.0006 17.2052 8.41291 17.5366 6.38996C17.7029 5.37476 17.7037 4.55665 17.5806 3.96563C17.4573 3.37365 17.2392 3.126 17.0631 3.02435C16.887 2.9227 16.5635 2.85765 15.9892 3.04682C15.4158 3.23571 14.7077 3.64543 13.9116 4.29707C12.3254 5.59559 10.5607 7.71437 9.03507 10.3569L8.15939 9.85133C11.3006 4.41059 15.5133 0.961995 17.5687 2.14867C19.6241 3.33535 18.7438 8.70794 15.6026 14.1487C12.4614 19.5894 8.24873 23.038 6.19334 21.8513C4.13795 20.6646 5.01818 15.2921 8.15939 9.85133L9.03507 10.3569C7.5094 12.9994 6.55683 15.5871 6.22539 17.61C6.05906 18.6252 6.05829 19.4434 6.1814 20.0344C6.30475 20.6264 6.52285 20.874 6.69891 20.9757Z" fill="#20C5F3"/>
<path d="M17.0631 20.9757C16.887 21.0773 16.5635 21.1424 15.9891 20.9532C15.4157 20.7643 14.7076 20.3546 13.9116 19.7029C12.3254 18.4044 10.5607 16.2856 9.03502 13.6431C7.50936 11.0006 6.55678 8.41291 6.22534 6.38996C6.05902 5.37476 6.05825 4.55665 6.18136 3.96563C6.30471 3.37365 6.5228 3.126 6.69886 3.02435C6.87492 2.9227 7.19844 2.85765 7.77279 3.04682C8.34618 3.23571 9.0543 3.64543 9.85032 4.29707C11.4365 5.59559 13.2012 7.71437 14.7269 10.3569L15.6026 9.85133C12.4614 4.41059 8.24868 0.961995 6.19329 2.14867C4.1379 3.33535 5.01813 8.70794 8.15935 14.1487C11.3006 19.5894 15.5132 23.038 17.5686 21.8513C19.624 20.6646 18.7438 15.2921 15.6026 9.85133L14.7269 10.3569C16.2526 12.9994 17.2051 15.5871 17.5366 17.61C17.7029 18.6252 17.7037 19.4434 17.5806 20.0344C17.4572 20.6264 17.2391 20.874 17.0631 20.9757Z" fill="#20C5F3"/>
</svg>
