<svg width="36" height="10" viewBox="0 0 36 10" fill="none" xmlns="http://www.w3.org/2000/svg">
<path d="M33.6375 2.8524C33.6501 2.41259 33.5157 2.07562 33.2341 1.84148C32.9556 1.60734 32.5554 1.49027 32.0333 1.49027C31.6663 1.49027 31.342 1.54564 31.0603 1.65638C30.7819 1.76396 30.5573 1.91425 30.3864 2.10726C30.2155 2.29711 30.1096 2.51384 30.0684 2.75748C30.0336 2.95681 30.051 3.13083 30.1206 3.27954C30.1902 3.42826 30.2962 3.55482 30.4386 3.65923C30.5842 3.76364 30.7487 3.85066 30.9322 3.92027C31.1189 3.98987 31.3087 4.04841 31.5017 4.09587L32.375 4.32368C32.7231 4.40911 33.0553 4.5246 33.3717 4.67015C33.6881 4.81253 33.9618 4.99604 34.1928 5.22069C34.4269 5.44218 34.5978 5.70954 34.7053 6.02278C34.8129 6.33602 34.8303 6.70305 34.7575 7.12387C34.6626 7.6934 34.4332 8.19491 34.0694 8.62838C33.7087 9.05869 33.2341 9.39567 32.6455 9.6393C32.0602 9.87977 31.3783 10 30.6 10C29.8469 10 29.211 9.88293 28.6921 9.64879C28.1731 9.41149 27.7935 9.06819 27.553 8.61889C27.3157 8.16959 27.2398 7.62379 27.3252 6.98149H29.0575C29.0227 7.32004 29.0781 7.60165 29.2236 7.82629C29.3723 8.05094 29.5859 8.21864 29.8643 8.32938C30.1428 8.44012 30.4655 8.49549 30.8325 8.49549C31.2154 8.49549 31.5619 8.43854 31.8719 8.32463C32.182 8.20756 32.4351 8.0462 32.6313 7.84053C32.8306 7.6317 32.9525 7.38807 32.9968 7.10963C33.0411 6.85967 33.0047 6.65085 32.8876 6.48315C32.7705 6.31546 32.5886 6.17624 32.3418 6.0655C32.0982 5.95159 31.8071 5.85034 31.4685 5.76175L30.4149 5.47698C29.6523 5.26815 29.0733 4.95491 28.6778 4.53726C28.2855 4.1196 28.1463 3.56273 28.2602 2.86663C28.3551 2.29078 28.594 1.78927 28.9768 1.36213C29.3597 0.931815 29.839 0.598007 30.4149 0.360702C30.9907 0.120234 31.6204 0 32.3038 0C32.9936 0 33.5774 0.120234 34.0551 0.360702C34.5361 0.60117 34.8873 0.936561 35.1088 1.36687C35.3334 1.79402 35.4078 2.28919 35.3318 2.8524H33.6375Z" fill="#FF5AC5"/>
<path d="M24.958 2.8524C24.9707 2.41259 24.8362 2.07562 24.5546 1.84148C24.2762 1.60734 23.8759 1.49027 23.3539 1.49027C22.9868 1.49027 22.6625 1.54564 22.3809 1.65638C22.1025 1.76396 21.8778 1.91425 21.707 2.10726C21.5361 2.29711 21.4301 2.51384 21.389 2.75748C21.3542 2.95681 21.3716 3.13083 21.4412 3.27954C21.5108 3.42826 21.6168 3.55482 21.7592 3.65923C21.9047 3.76364 22.0692 3.85066 22.2528 3.92027C22.4394 3.98987 22.6293 4.04841 22.8223 4.09587L23.6956 4.32368C24.0436 4.40911 24.3758 4.5246 24.6922 4.67015C25.0087 4.81253 25.2823 4.99604 25.5133 5.22069C25.7475 5.44218 25.9183 5.70954 26.0259 6.02278C26.1335 6.33602 26.1509 6.70305 26.0781 7.12387C25.9832 7.6934 25.7538 8.19491 25.3899 8.62838C25.0292 9.05869 24.5546 9.39567 23.9661 9.6393C23.3807 9.87977 22.6989 10 21.9205 10C21.1675 10 20.5315 9.88293 20.0126 9.64879C19.4937 9.41149 19.114 9.06819 18.8735 8.61889C18.6362 8.16959 18.5603 7.62379 18.6457 6.98149H20.3781C20.3433 7.32004 20.3986 7.60165 20.5442 7.82629C20.6929 8.05094 20.9065 8.21864 21.1849 8.32938C21.4633 8.44012 21.7861 8.49549 22.1531 8.49549C22.5359 8.49549 22.8824 8.43854 23.1925 8.32463C23.5026 8.20756 23.7557 8.0462 23.9519 7.84053C24.1512 7.6317 24.273 7.38807 24.3173 7.10963C24.3616 6.85967 24.3252 6.65085 24.2081 6.48315C24.0911 6.31546 23.9091 6.17624 23.6623 6.0655C23.4187 5.95159 23.1276 5.85034 22.7891 5.76175L21.7354 5.47698C20.9729 5.26815 20.3939 4.95491 19.9984 4.53726C19.606 4.1196 19.4668 3.56273 19.5807 2.86663C19.6756 2.29078 19.9145 1.78927 20.2974 1.36213C20.6802 0.931815 21.1596 0.598007 21.7354 0.360702C22.3113 0.120234 22.9409 0 23.6244 0C24.3141 0 24.8979 0.120234 25.3757 0.360702C25.8566 0.60117 26.2078 0.936561 26.4293 1.36687C26.654 1.79402 26.7283 2.28919 26.6524 2.8524H24.958Z" fill="#FF5AC5"/>
<path d="M17.9635 3.41244H16.2169C16.2169 3.12134 16.1694 2.86347 16.0745 2.63882C15.9796 2.41101 15.8467 2.218 15.6758 2.0598C15.505 1.9016 15.3025 1.78295 15.0683 1.70384C14.8342 1.62158 14.5747 1.58045 14.29 1.58045C13.7458 1.58045 13.2395 1.71808 12.7712 1.99336C12.303 2.26863 11.9059 2.66888 11.58 3.19412C11.2541 3.71618 11.0278 4.35058 10.9013 5.0973C10.7842 5.82503 10.7953 6.43411 10.9345 6.92454C11.0769 7.41497 11.3237 7.78516 11.6749 8.03512C12.0261 8.28192 12.4532 8.40532 12.9563 8.40532C13.2632 8.40532 13.5575 8.36735 13.8391 8.29141C14.1207 8.21231 14.3802 8.09682 14.6175 7.94495C14.8579 7.78991 15.0683 7.60165 15.2487 7.38016C15.4322 7.15868 15.5746 6.90714 15.6758 6.62553H17.4461C17.3006 7.08749 17.087 7.52254 16.8054 7.93071C16.5238 8.33571 16.1853 8.69325 15.7897 9.00332C15.3942 9.31024 14.9513 9.5507 14.4608 9.72473C13.9704 9.89875 13.442 9.98576 12.8756 9.98576C12.0055 9.98576 11.2604 9.78326 10.6402 9.37826C10.0232 8.9701 9.58028 8.38633 9.31134 7.62696C9.04239 6.86442 8.99493 5.95159 9.16896 4.88847C9.34298 3.85382 9.67837 2.97263 10.1751 2.2449C10.675 1.51717 11.2841 0.961873 12.0024 0.579022C12.7238 0.193007 13.5005 0 14.3327 0C14.8832 0 15.3832 0.0759373 15.8325 0.227812C16.2849 0.379687 16.6725 0.602753 16.9952 0.89701C17.318 1.1881 17.5632 1.54564 17.7309 1.96963C17.9018 2.39045 17.9793 2.87138 17.9635 3.41244Z" fill="#FF5AC5"/>
<path d="M6.34621 2.8524C6.35887 2.41259 6.2244 2.07562 5.9428 1.84148C5.66436 1.60734 5.26411 1.49027 4.74204 1.49027C4.37501 1.49027 4.05069 1.54564 3.76909 1.65638C3.49065 1.76396 3.266 1.91425 3.09515 2.10726C2.92429 2.29711 2.81829 2.51384 2.77716 2.75748C2.74235 2.95681 2.75976 3.13083 2.82936 3.27954C2.89897 3.42826 3.00497 3.55482 3.14735 3.65923C3.2929 3.76364 3.45743 3.85066 3.64094 3.92027C3.82762 3.98987 4.01747 4.04841 4.21048 4.09587L5.08375 4.32368C5.4318 4.40911 5.76403 4.5246 6.08043 4.67015C6.39684 4.81253 6.67053 4.99604 6.90151 5.22069C7.13564 5.44218 7.3065 5.70954 7.41408 6.02278C7.52166 6.33602 7.53906 6.70305 7.46629 7.12387C7.37137 7.6934 7.14197 8.19491 6.77811 8.62838C6.4174 9.05869 5.9428 9.39567 5.35428 9.6393C4.76893 9.87977 4.08708 10 3.30872 10C2.55567 10 1.9197 9.88293 1.40079 9.64879C0.881888 9.41149 0.502201 9.06819 0.261733 8.61889C0.0244284 8.16959 -0.051509 7.62379 0.0339205 6.98149H1.76624C1.73144 7.32004 1.78681 7.60165 1.93235 7.82629C2.08107 8.05094 2.29464 8.21864 2.57308 8.32938C2.85151 8.44012 3.17425 8.49549 3.54128 8.49549C3.92413 8.49549 4.27059 8.43854 4.58067 8.32463C4.89075 8.20756 5.14387 8.0462 5.34004 7.84053C5.53938 7.6317 5.6612 7.38807 5.70549 7.10963C5.74979 6.85967 5.7134 6.65085 5.59633 6.48315C5.47926 6.31546 5.29733 6.17624 5.05053 6.0655C4.8069 5.95159 4.51581 5.85034 4.17725 5.76175L3.12362 5.47698C2.36108 5.26815 1.78206 4.95491 1.38655 4.53726C0.994212 4.1196 0.854993 3.56273 0.968899 2.86663C1.06382 2.29078 1.30271 1.78927 1.68556 1.36213C2.06841 0.931815 2.54776 0.598007 3.12362 0.360702C3.69948 0.120234 4.32913 0 5.01256 0C5.70233 0 6.2861 0.120234 6.76387 0.360702C7.2448 0.60117 7.59602 0.936561 7.8175 1.36687C8.04215 1.79402 8.1165 2.28919 8.04057 2.8524H6.34621Z" fill="#FF5AC5"/>
</svg>
